<svg xmlns="http://www.w3.org/2000/svg" version="1.1" xmlns:xlink="http://www.w3.org/1999/xlink" xmlns:svgjs="http://svgjs.dev/svgjs" width="3840" height="1600" preserveAspectRatio="none" viewBox="0 0 3840 1600"><g mask="url(&quot;#SvgjsMask1155&quot;)" fill="none"><rect width="3840" height="1600" x="0" y="0" fill="rgba(0, 186, 1, 1)"></rect><path d="M0,1362.52C249.108,1334.603,414.54,1106.715,612.039,952.351C790.011,813.25,975.475,690.743,1100.336,502.507C1241.776,289.276,1406.809,56.198,1374.872,-197.677C1342.848,-452.238,1131.175,-644.77,935.181,-810.339C759.6,-958.664,541.016,-1026.76,319.759,-1089.001C100.899,-1150.567,-116.617,-1183.757,-343.559,-1170.053C-624.804,-1153.07,-971.258,-1214.406,-1154.064,-1000.002C-1337.107,-785.32,-1147.787,-449.966,-1194.714,-171.774C-1243.382,116.739,-1537.9,381.303,-1433.155,654.5C-1329.385,925.153,-966.921,971.79,-707.041,1100.178C-477.005,1213.823,-254.981,1391.095,0,1362.52" fill="#008801"></path><path d="M3840 2641.688C4041.038 2657.1549999999997 4227.119 2569.2690000000002 4413.5470000000005 2492.457 4638.252 2399.874 4923.68 2361.483 5039.129 2147.624 5154.564 1933.79 5081.294 1658.231 4984.13 1435.499 4898.841 1239.988 4706.132 1125.9470000000001 4536.832 996.192 4398.965 890.528 4250.857 814.497 4089.607 749.918 3911.527 678.598 3737.571 585.987 3546.214 599.458 3329.713 614.699 3112.878 685.001 2951.423 830.044 2779.748 984.268 2673.404 1199.557 2626.651 1425.547 2578.0460000000003 1660.487 2544.432 1932.481 2682.8 2128.475 2819.45 2322.036 3103.9049999999997 2312.305 3320.497 2408.362 3497.616 2486.913 3646.815 2626.825 3840 2641.688" fill="#00ec01"></path></g><defs><mask id="SvgjsMask1155"><rect width="3840" height="1600" fill="#ffffff"></rect></mask></defs></svg>