<svg xmlns="http://www.w3.org/2000/svg" version="1.1" xmlns:xlink="http://www.w3.org/1999/xlink" xmlns:svgjs="http://svgjs.dev/svgjs" width="3840" height="2160" preserveAspectRatio="none" viewBox="0 0 3840 2160"><g mask="url(&quot;#SvgjsMask1157&quot;)" fill="none"><rect width="3840" height="2160" x="0" y="0" fill="rgba(0, 186, 1, 1)"></rect><path d="M0,1466.313C271.943,1449.57,411.758,1133.792,605.592,942.32C758.078,791.692,912.067,651.53,1015.102,463.582C1124.72,263.625,1267.659,47.454,1218.2,-175.151C1169.07,-396.277,932.479,-510.394,764.852,-662.748C617.869,-796.338,476.318,-926.356,297.215,-1012.22C90.104,-1111.511,-123.575,-1224.019,-351.787,-1198.077C-597.619,-1170.132,-854.143,-1066.099,-998.217,-864.96C-1139.693,-667.447,-1078.154,-399.945,-1096.981,-157.722C-1114.441,66.913,-1183.746,293.505,-1104.656,504.479C-1023.001,722.295,-830.925,867.209,-655.49,1019.962C-452.007,1197.137,-269.298,1482.893,0,1466.313" fill="#008801"></path><path d="M3840 3307.321C4061.6440000000002 3325.746 4285.831 3265.103 4473.385 3145.566 4661.342 3025.773 4833.8060000000005 2854.948 4888.71 2638.93 4941.072 2432.913 4812.921 2233.286 4757.403 2028.097 4709.278 1850.232 4669.271 1678.468 4584.5650000000005 1514.8310000000001 4476.762 1306.575 4423.66 1004.213 4196.75 945.02 3968.06 885.363 3795.096 1169.921 3573.085 1250.971 3371.44 1324.586 3100.745 1235.3980000000001 2959.226 1396.8049999999998 2817.781 1558.127 2936.822 1813.687 2895.169 2024.154 2850.201 2251.368 2625.705 2460.652 2705.659 2678.036 2784.84 2893.317 3070.275 2934.327 3270.858 3045.602 3457.228 3148.993 3627.605 3289.665 3840 3307.321" fill="#00ec01"></path></g><defs><mask id="SvgjsMask1157"><rect width="3840" height="2160" fill="#ffffff"></rect></mask></defs></svg>