<?xml version="1.0" encoding="UTF-8" standalone="no"?><!DOCTYPE svg PUBLIC "-//W3C//DTD SVG 1.1//EN" "http://www.w3.org/Graphics/SVG/1.1/DTD/svg11.dtd"><svg width="100%" height="100%" viewBox="0 0 1702 448" version="1.1" xmlns="http://www.w3.org/2000/svg" xmlns:xlink="http://www.w3.org/1999/xlink" xml:space="preserve" xmlns:serif="http://www.serif.com/" style="fill-rule:evenodd;clip-rule:evenodd;stroke-linejoin:round;stroke-miterlimit:2;"><g><path d="M102.617,50.712l0,92.475l62.048,0l0,50.116l-62.048,-0l0,152.732c0,10.739 0.995,19.291 2.983,25.655c1.989,6.364 4.972,11.335 8.95,14.915c3.977,3.182 8.949,5.171 14.915,5.966c5.966,1.193 12.927,1.79 20.881,1.79c6.364,0 11.137,-0.199 14.319,-0.597l0,51.906c-1.193,0.398 -3.58,0.795 -7.159,1.193c-3.182,0.398 -7.756,0.597 -13.722,0.597c-13.524,-0 -26.052,-1.591 -37.587,-4.773c-11.932,-3.58 -22.472,-9.148 -31.62,-16.705c-8.751,-7.955 -15.711,-18.297 -20.882,-31.024c-4.773,-12.728 -7.159,-28.638 -7.159,-47.729l-0,-153.926l-46.536,-0l-0,-50.116l46.536,0l-0,-92.475l56.081,0Z" style="fill:#00ba01;fill-rule:nonzero;"/><path d="M297.113,137.221c21.478,-0 41.365,3.977 59.661,11.932c18.694,7.557 34.604,18.296 47.73,32.217c13.523,13.524 23.864,29.831 31.023,48.923c7.557,18.693 11.336,39.376 11.336,62.047l0,21.478l-186.74,0l0,-47.729l128.272,0c-4.773,-23.466 -15.114,-42.359 -31.024,-56.678c-16.307,-14.319 -36.393,-21.478 -60.258,-21.478c-14.319,0 -27.245,2.585 -38.78,7.756c-11.136,5.171 -20.682,12.33 -28.637,21.478c-8.353,9.148 -14.716,19.887 -19.092,32.217c-4.375,12.33 -6.562,25.853 -6.562,40.57c-0,15.512 2.585,29.632 7.756,42.359c4.772,13.126 11.733,24.461 20.881,34.007c9.148,9.148 19.887,16.507 32.217,22.075c12.33,5.171 25.853,7.756 40.57,7.756c12.33,-0 23.268,-1.591 32.813,-4.773c9.546,-3.58 17.7,-7.557 24.462,-11.932c7.159,-4.375 12.926,-8.949 17.301,-13.722c4.773,-4.773 8.353,-8.552 10.739,-11.336l41.763,30.427c-9.943,12.33 -19.887,22.473 -29.83,30.428c-9.944,7.954 -20.086,14.318 -30.428,19.091c-10.341,4.773 -21.08,8.154 -32.217,10.143c-11.534,1.988 -23.864,2.983 -36.99,2.983c-22.273,-0 -42.956,-3.779 -62.047,-11.336c-19.092,-7.955 -35.598,-18.893 -49.519,-32.814c-13.921,-13.921 -24.859,-30.427 -32.814,-49.519c-7.955,-19.091 -11.932,-39.973 -11.932,-62.644c-0,-22.273 3.778,-42.757 11.335,-61.451c7.558,-18.694 17.899,-35.001 31.024,-48.922c13.524,-13.524 29.433,-24.263 47.729,-32.217c18.296,-7.557 38.382,-11.336 60.258,-11.336Z" style="fill:#00ba01;fill-rule:nonzero;"/><path d="M611.528,137.221c23.865,-0 45.542,3.977 65.031,11.932c19.887,8.353 36.99,19.887 51.309,34.604l-39.377,39.376c-9.148,-10.739 -20.285,-19.29 -33.41,-25.654c-13.126,-5.966 -27.643,-8.949 -43.553,-8.949c-14.716,-0 -28.239,2.585 -40.569,7.756c-12.33,5.17 -22.871,12.529 -31.621,22.074c-9.148,9.148 -16.307,20.086 -21.478,32.814c-4.773,12.33 -7.159,26.052 -7.159,41.166c-0,14.717 2.585,28.439 7.756,41.167c4.772,12.727 11.534,23.665 20.284,32.813c9.148,9.148 19.888,16.507 32.218,22.075c12.33,5.171 25.853,7.756 40.569,7.756c15.91,-0 30.427,-3.182 43.553,-9.546c13.523,-5.966 24.66,-14.517 33.41,-25.654l39.377,39.376c-14.319,14.717 -31.422,26.251 -51.309,34.604c-19.489,8.352 -41.166,12.529 -65.031,12.529c-22.671,-0 -43.751,-3.978 -63.241,-11.933c-19.489,-7.557 -36.194,-18.296 -50.115,-32.217c-13.921,-13.523 -24.859,-29.83 -32.814,-48.922c-7.955,-19.092 -11.932,-39.774 -11.932,-62.048c-0,-22.671 3.977,-43.354 11.932,-62.047c7.955,-19.092 18.893,-35.598 32.814,-49.519c13.921,-13.524 30.626,-24.263 50.115,-32.217c19.092,-7.557 40.172,-11.336 63.241,-11.336Z" style="fill:#00ba01;fill-rule:nonzero;"/><path d="M787.529,0l-0,188.53c9.944,-13.126 22.87,-25.058 38.78,-35.797c15.512,-10.341 34.802,-15.512 57.871,-15.512c14.319,-0 27.842,2.585 40.57,7.756c12.728,5.171 23.666,12.927 32.814,23.268c9.545,9.943 16.904,22.472 22.074,37.586c5.569,15.512 8.353,33.212 8.353,53.099l-0,182.564l-56.082,-0l0,-182.564c0,-23.467 -4.971,-41.166 -14.915,-53.099c-9.546,-11.932 -22.87,-17.898 -39.973,-17.898c-11.137,0 -22.075,2.387 -32.814,7.159c-10.739,4.376 -20.285,10.143 -28.637,17.302c-8.353,6.762 -15.114,14.518 -20.285,23.268c-5.171,8.353 -7.756,16.506 -7.756,24.461l-0,0.597l-0,-1.193l-0,181.967l-56.082,-0l0,-441.494l56.082,0Z" style="fill:#00ba01;fill-rule:nonzero;"/><path d="M1125.21,0c4.773,0 8.75,0.199 11.932,0.597c3.58,0.397 5.966,0.795 7.159,1.193l0,48.922l-11.932,0c-19.489,0 -32.813,5.767 -39.973,17.302c-6.761,11.534 -10.142,26.649 -10.142,45.342l-0,29.831l62.047,0l0,50.116l-62.047,-0l-0,248.191l-56.082,-0l0,-248.191l-46.536,-0l0,-50.116l46.536,0l0,-29.831c0,-19.091 2.387,-35.597 7.159,-49.518c5.171,-14.319 12.33,-26.251 21.479,-35.797c8.75,-9.148 19.29,-16.109 31.62,-20.882c11.932,-4.773 24.859,-7.159 38.78,-7.159Z" style="fill-rule:nonzero;"/><path d="M1275.56,137.221c23.069,-0 44.15,3.779 63.241,11.336c19.49,7.954 36.195,18.693 50.116,32.217c14.318,13.921 25.256,30.427 32.813,49.519c7.955,18.693 11.933,39.376 11.933,62.047c-0,22.274 -3.978,42.956 -11.933,62.048c-7.954,19.092 -18.892,35.399 -32.813,48.922c-13.921,13.921 -30.626,24.66 -50.116,32.217c-19.091,7.955 -40.172,11.933 -63.241,11.933c-22.671,-0 -43.751,-3.978 -63.241,-11.933c-19.489,-7.557 -36.194,-18.296 -50.115,-32.217c-13.921,-13.523 -24.859,-29.83 -32.814,-48.922c-7.955,-19.092 -11.932,-39.774 -11.932,-62.048c-0,-22.671 3.977,-43.354 11.932,-62.047c7.955,-19.092 18.893,-35.598 32.814,-49.519c13.921,-13.524 30.626,-24.263 50.115,-32.217c19.092,-7.557 40.172,-11.336 63.241,-11.336Zm0,51.309c-14.716,-0 -28.239,2.585 -40.569,7.756c-12.33,5.17 -22.871,12.529 -31.621,22.074c-9.148,9.148 -16.307,20.086 -21.478,32.814c-4.773,12.33 -7.159,26.052 -7.159,41.166c-0,14.717 2.585,28.439 7.756,41.167c4.773,12.727 11.534,23.665 20.285,32.813c9.148,9.148 19.887,16.507 32.217,22.075c12.33,5.171 25.853,7.756 40.569,7.756c14.717,-0 28.24,-2.585 40.57,-7.756c12.33,-5.568 22.87,-12.927 31.62,-22.075c9.149,-9.148 16.308,-20.086 21.479,-32.813c4.772,-12.728 7.159,-26.45 7.159,-41.167c-0,-15.114 -2.387,-28.836 -7.159,-41.166c-5.171,-12.728 -12.33,-23.666 -21.479,-32.814c-8.75,-9.545 -19.29,-16.904 -31.62,-22.074c-12.33,-5.171 -25.853,-7.756 -40.57,-7.756Z" style="fill-rule:nonzero;"/><path d="M1403.83,143.187l69.207,0l75.173,98.441l75.77,-98.441l69.207,0l-110.373,143.187l118.726,155.12l-68.611,-0l-84.719,-109.777l-84.122,109.777l-68.611,-0l118.726,-155.12l-110.373,-143.187Z" style="fill-rule:nonzero;"/></g><text x="1190.02px" y="336.469px" style="font-family:'SegoeUIEmoji', 'Segoe UI Emoji';font-size:125px;">🍁</text></svg>